# AST/ASF file generated using VICON BodyLanguage
# -----------------------------------------------
:version 1.10
:name VICON
:units
  mass 1.0
  length 0.45
  angle deg
:documentation
   .ast/.asf automatically generated from VICON data using
   VICON BodyBuilder and BodyLanguage model FoxedUp or BRILLIANT.MOD
:root
   order TX TY TZ RX RY RZ
   axis XYZ
   position 0 0 0  
   orientation 0 0 0 
:bonedata
  begin
     id 1 
     name lhipjoint
     direction 0.692814 -0.645514 0.321437 
     length 2.38754 
     axis 0 0 0  XYZ
  end
  begin
     id 2 
     name lfemur
     direction 0.34202 -0.939693 0  
     length 6.41921  
     axis 0 0 20  XYZ
    dof rx ry rz
    limits (-160.0 20.0)
           (-70.0 70.0)
           (-60.0 70.0)
  end
  begin
     id 3 
     name ltibia
     direction 0.34202 -0.939693 0   
     length 6.98247   
     axis 0 0 20   XYZ
    dof rx
    limits (-10.0 170.0)
  end
  begin
     id 4 
     name lfoot
     direction 0.0947186 -0.260237 0.960888   
     length 1.83034   
     axis -90 7.62852e-016 20   XYZ
    dof rx rz
    limits (-45.0 90.0)
           (-70.0 20.0)
  end
  begin
     id 5 
     name ltoes
     direction 1.53538e-011 -4.21952e-011 1   
     length 0.920499   
     axis -90 7.62852e-016 20   XYZ
    dof rx
    limits (-90.0 20.0)
  end
  begin
     id 6 
     name rhipjoint
     direction -0.631686 -0.693949 0.345555   
     length 2.2209  
     axis 0 0 0  XYZ 
  end
  begin
     id 7 
     name rfemur
     direction -0.34202 -0.939693 0   
     length 6.49542   
     axis 0 0 -20   XYZ
    dof rx ry rz
    limits (-160.0 20.0)
           (-70.0 70.0)
           (-70.0 60.0)
  end
  begin
     id 8 
     name rtibia
     direction -0.34202 -0.939693 0   
     length 7.21712   
     axis 0 0 -20   XYZ
    dof rx
    limits (-10.0 170.0)
 end
 begin
     id 9 
     name rfoot
     direction -0.0825378 -0.226771 0.970444   
     length 1.89724  
     axis -90 -7.62852e-016 -20   XYZ
    dof rx rz
    limits (-45.0 90.0)
           (-20.0 70.0)
  end
  begin
     id 10 
     name rtoes
     direction -1.53515e-011 -4.22016e-011 1   
     length 0.955868   
     axis -90 -7.62852e-016 -20   XYZ
    dof rx
    limits (-90.0 20.0)
  end
  begin
     id 11 
     name lowerback
     direction -0.0104711 0.984802 -0.173368   
     length 1.84931   
     axis 0 0 0   XYZ
    dof rx ry rz
    limits (-20.0 45.0)
           (-30.0 30.0)
           (-30.0 30.0)
  end
  begin
     id 12 
     name upperback
     direction -0.00286433 0.999996 -0.000382853   
     length 1.85768   
     axis 0 0 0   XYZ
    dof rx ry rz
    limits (-20.0 45.0)
           (-30.0 30.0)
           (-30.0 30.0)
  end
  begin
     id 13 
     name thorax
     direction 0.00167534 0.996793 0.0800069   
     length 1.92   
     axis 0 0 0   XYZ
    dof rx ry rz
    limits (-20.0 45.0)
           (-30.0 30.0)
           (-30.0 30.0)
  end
  begin
     id 14 
     name lowerneck
     direction -0.0672491 0.995415 0.068018   
     length 1.58923   
     axis 0 0 0   XYZ
    dof rx ry rz
    limits (-20.0 45.0)
           (-30.0 30.0)
           (-30.0 30.0)
  end
  begin
     id 15 
     name upperneck
     direction 0.0958019 0.982476 -0.159884   
     length 1.60189   
     axis 0 0 0   XYZ
    dof rx ry rz
    limits (-20.0 45.0)
           (-30.0 30.0)
           (-30.0 30.0)
  end
  begin
     id 16
     name head
     direction 0.032989 0.997338 -0.0650226  
     length 1.61681  
     axis 0 0 0   XYZ
    dof rx ry rz
    limits (-20.0 45.0)
           (-30.0 30.0)
           (-30.0 30.0)
  end
  begin
     id 17 
     name lclavicle
     direction 0.954279 0.298875 -0.00496069  
     length 2.99449  
     axis 0 0 0   XYZ
    dof ry rz
    limits (-20.0 10.0)
           (0.0 20.0)
  end
  begin
     id 18 
     name lhumerus
     direction 1 -4.48985e-011 -4.2057e-027   
     length 4.79185   
     axis 180 -30 -90   XYZ
    dof rx ry rz
    limits (-60.0 90.0)
           (-90.0 90.0)
           (-90.0 90.0)
  end
  begin
     id 19
     name lradius
     direction 1 -4.48945e-011 1.15441e-028   
     length 2.65553   
     axis 180 -30 -90   XYZ
    dof rx
    limits (-10.0 170.0)
  end
  begin
     id 20
     name lwrist
     direction 1 -4.4899e-011 4.8894e-028   
     length 1.32777   
     axis -2.56392e-016 90 90   XYZ
    dof ry
    limits (-180.0 0.0)
 end
  begin
     id 21 
     name lhand
     direction 1 -4.48908e-011 9.7788e-028   
     length 0.743904   
     axis -6.23971e-016 90 90   XYZ
    dof rx rz
    limits (-90.0 90.0)
           (-45.0 45.0)
  end
  begin
     id 22 
     name lfingers
     direction 1 -4.49068e-011 1.95576e-027   
     length 0.599754   
     axis -1.24794e-015 90 90   XYZ
    dof rx
    limits (0.0 90.0)
  end
  begin
     id 23
     name lthumb
     direction 0.707107 -6.34883e-011 0.707107   
     length 0.861131   
     axis -90 45 2.85299e-015   XYZ
    dof rx rz
    limits (-45.0 45.0)
           (-45.0 45.0)
  end
  begin
     id 24 
     name rclavicle
     direction -0.957921 0.286916 0.00811568   
     length 3.06817  
     axis 0 0 0   XYZ 
    dof ry rz
    limits (-10.0 20.0)
           (-20.0 0.0)
  end
  begin
     id 25 
     name rhumerus
     direction -1 -4.48971e-011 -3.07942e-027  
     length 4.77254   
     axis 180 30 90   XYZ
    dof rx ry rz
    limits (-90.0 60.0)
           (-90.0 90.0)
           (-90.0 90.0)
  end
  begin
     id 26 
     name rradius
     direction -1 -4.48957e-011 -9.6815e-028   
     length 2.75995   
     axis 180 30 90   XYZ
    dof rx
    limits (-10.0 170.0)
  end
  begin
     id 27 
     name rwrist
     direction -1 -4.48979e-011 4.8894e-028   
     length 1.37997   
     axis -2.56392e-016 -90 -90   XYZ
    dof ry
    limits (-180.0 0.0)
  end
  begin
     id 28
     name rhand
     direction -1 -4.48906e-011 9.7788e-028   
     length 0.701619   
     axis -6.23971e-016 -90 -90   XYZ
    dof rx rz
    limits (-90.0 90.0)
           (-45.0 45.0)
  end
  begin
     id 29
     name rfingers
     direction -1 -4.49018e-011 1.95576e-027   
     length 0.565663   
     axis -1.24794e-015 -90 -90   XYZ
    dof rx
    limits (0.0 90.0)
  end
  begin
     id 30
     name rthumb
     direction -0.707107 -6.34881e-011 0.707107   
     length 0.812183   
     axis -90 -45 -2.85299e-015   XYZ
    dof rx rz
    limits (-45.0 45.0)
           (-45.0 45.0)
  end
:hierarchy
  begin
    root lhipjoint rhipjoint lowerback
    lhipjoint lfemur
    lfemur ltibia
    ltibia lfoot
    lfoot ltoes
    rhipjoint rfemur
    rfemur rtibia
    rtibia rfoot
    rfoot rtoes
    lowerback upperback
    upperback thorax
    thorax lowerneck lclavicle rclavicle
    lowerneck upperneck
    upperneck head
    lclavicle lhumerus
    lhumerus lradius
    lradius lwrist
    lwrist lhand lthumb
    lhand lfingers
    rclavicle rhumerus
    rhumerus rradius
    rradius rwrist
    rwrist rhand rthumb
    rhand rfingers
  end

#!OML:ASF F:\VICON\USERDATA\INSTALL\rory3\rory3.ASF
:FULLY-SPECIFIED
:DEGREES
195
root 0.440427 15.8856 0.329237 -0.905346 -0.271153 -0.852465
lowerback 11.6239 0.602385 -1.38911
upperback -0.578354 0.58997 -0.261548
thorax -7.15646 0.334528 0.404008
lowerneck -13.0677 -8.64673 -12.5184
upperneck 22.3386 -10.7641 6.23274
head 10.3389 -5.37481 2.81085
rclavicle 1.76546e-014 4.37326e-015
rhumerus -48.9266 39.2482 -112.363
rradius 53.5116
rwrist 7.11367
rhand -1.67187 14.4273
rfingers 7.12502
rthumb 23.9881 -14.0939
lclavicle 1.76546e-014 4.37326e-015
lhumerus -38.0759 -20.8903 97.247
lradius 37.7773
lwrist 3.73281
lhand -5.90699 14.4393
lfingers 7.12502
lthumb 19.9218 43.4381
rfemur -2.81044 10.8996 17.78
rtibia 24.416
rfoot -15.7893 -12.8096
rtoes -11.5729
lfemur -1.87485 -10.9471 -17.8781
ltibia 22.3044
lfoot -14.74 7.71703
ltoes -12.5194
196
root 0.441292 15.8843 0.328567 -0.933829 -0.26908 -0.891258
lowerback 11.6498 0.594399 -1.34501
upperback -0.562104 0.585973 -0.250246
thorax -7.15342 0.331061 0.39164
lowerneck -13.0976 -8.64439 -12.5312
upperneck 22.3633 -10.7518 6.2197
head 10.3523 -5.37097 2.80897
rclavicle 1.63997e-014 2.78299e-015
rhumerus -48.922 39.2984 -112.366
rradius 53.5352
rwrist 7.06117
rhand -1.55269 14.428
rfingers 7.12502
rthumb 24.1024 -14.0781
lclavicle 1.63997e-014 2.78299e-015
lhumerus -38.0712 -20.9116 97.2484
lradius 37.778
lwrist 3.74548
lhand -5.85948 14.4
lfingers 7.12502
lthumb 19.9674 43.3941
rfemur -2.81766 10.8795 17.8298
rtibia 24.4911
rfoot -15.8302 -12.8506
rtoes -11.6898
lfemur -1.83841 -10.9713 -17.8441
ltibia 22.2987
lfoot -14.7311 7.71608
ltoes -12.3119
197
root 0.442381 15.8831 0.327798 -0.959099 -0.266865 -0.893629
lowerback 11.6926 0.587073 -1.32713
upperback -0.561444 0.577564 -0.255955
thorax -7.17656 0.326263 0.376638
lowerneck -13.1759 -8.64587 -12.4999
upperneck 22.4497 -10.7421 6.16523
head 10.3923 -5.36833 2.78313
rclavicle -1.09704e-014 7.15625e-015
rhumerus -48.9367 39.3281 -112.387
rradius 53.5727
rwrist 7.00623
rhand -1.50384 14.3964
rfingers 7.12502
rthumb 24.1492 -14.1035
lclavicle -1.09704e-014 7.15625e-015
lhumerus -38.1014 -20.9473 97.274
lradius 37.7974
lwrist 3.79458
lhand -5.93809 14.4127
lfingers 7.12502
lthumb 19.8919 43.4147
rfemur -2.82737 10.8922 17.8407
rtibia 24.5738
rfoot -15.9265 -12.8399
rtoes -11.3807
lfemur -1.79167 -10.994 -17.8519
ltibia 22.2861
lfoot -14.7426 7.69031
ltoes -11.8814
198
root 0.444075 15.8815 0.327814 -0.957051 -0.24669 -0.855597
lowerback 11.7228 0.578595 -1.34452
upperback -0.587969 0.56229 -0.26697
thorax -7.22183 0.319555 0.377084
lowerneck -13.1719 -8.63227 -12.459
upperneck 22.4792 -10.7172 6.09707
head 10.393 -5.36118 2.75648
rclavicle -6.32384e-015 6.75868e-015
rhumerus -49.0089 39.3764 -112.454
rradius 53.5755
rwrist 7.03676
rhand -1.56486 14.3979
rfingers 7.12502
rthumb 24.0907 -14.1098
lclavicle -6.32384e-015 6.75868e-015
lhumerus -38.1746 -20.9852 97.3258
lradius 37.8305
lwrist 3.90221
lhand -6.04825 14.4447
lfingers 7.12502
lthumb 19.786 43.4576
rfemur -2.85289 10.8874 17.7909
rtibia 24.6204
rfoot -15.9197 -12.847
rtoes -11.1776
lfemur -1.8039 -11.032 -17.8984
ltibia 22.3113
lfoot -14.7447 7.67968
ltoes -11.7568
199
root 0.445185 15.8802 0.328373 -0.958068 -0.224177 -0.854447
lowerback 11.7378 0.578318 -1.34503
upperback -0.603317 0.561417 -0.267457
thorax -7.24677 0.319314 0.376773
lowerneck -13.1621 -8.62036 -12.4391
upperneck 22.4967 -10.7007 6.07155
head 10.393 -5.35509 2.74724
rclavicle -7.45443e-017 1.98785e-015
rhumerus -49.0591 39.4154 -112.502
rradius 53.5957
rwrist 7.11099
rhand -1.64014 14.4926
rfingers 7.12502
rthumb 24.0185 -14.0246
lclavicle -7.45443e-017 1.98785e-015
lhumerus -38.2067 -21.0055 97.3372
lradius 37.8617
lwrist 3.93563
lhand -6.10922 14.4418
lfingers 7.12502
lthumb 19.7274 43.4608
rfemur -2.87228 10.8591 17.7854
rtibia 24.6666
rfoot -15.9136 -12.8931
rtoes -11.3888
lfemur -1.8121 -11.0242 -17.9025
ltibia 22.326
lfoot -14.7909 7.68078
ltoes -12.0864
200
root 0.445674 15.8787 0.328701 -0.972354 -0.19574 -0.931078
lowerback 11.7321 0.576986 -1.26206
upperback -0.587742 0.573699 -0.237582
thorax -7.22651 0.322617 0.359487
lowerneck -13.177 -8.62648 -12.4585
upperneck 22.5047 -10.6964 6.04615
head 10.3982 -5.357 2.7413
rclavicle -1.76421e-014 -4.77083e-015
rhumerus -49.0201 39.4168 -112.458
rradius 53.587
rwrist 7.20565
rhand -1.61348 14.4957
rfingers 7.12502
rthumb 24.0441 -14.0181
lclavicle -1.76421e-014 -4.77083e-015
lhumerus -38.1654 -20.9542 97.3394
lradius 37.8499
lwrist 3.8435
lhand -6.11487 14.4376
lfingers 7.12502
lthumb 19.7219 43.4571
rfemur -2.87209 10.8313 17.8751
rtibia 24.7022
rfoot -15.9347 -12.9355
rtoes -11.6096
lfemur -1.81349 -11.0142 -17.8145
ltibia 22.3381
lfoot -14.7952 7.61573
ltoes -12.0899
201
root 0.447671 15.8781 0.328968 -0.991089 -0.188338 -0.8564
lowerback 11.7108 0.581356 -1.31536
upperback -0.555377 0.572081 -0.245897
thorax -7.18031 0.323341 0.381469
lowerneck -13.1955 -8.62852 -12.4854
upperneck 22.5091 -10.6827 6.01666
head 10.402 -5.35557 2.73639
rclavicle -1.01877e-015 -7.15625e-015
rhumerus -48.9846 39.488 -112.421
rradius 53.5822
rwrist 7.19257
rhand -1.59003 14.4468
rfingers 7.12502
rthumb 24.0666 -14.064
lclavicle -1.01877e-015 -7.15625e-015
lhumerus -38.1161 -20.9591 97.37
lradius 37.8589
lwrist 3.82964
lhand -6.13124 14.5475
lfingers 7.12502
lthumb 19.7062 43.5687
rfemur -2.87348 10.8119 17.7876
rtibia 24.7365
rfoot -15.9422 -12.9446
rtoes -11.8468
lfemur -1.8043 -11.0416 -17.9085
ltibia 22.3435
lfoot -14.8057 7.60067
ltoes -11.9102
202
root 0.448872 15.8779 0.328917 -0.995783 -0.221354 -0.818721
lowerback 11.7096 0.589152 -1.33553
upperback -0.552187 0.578718 -0.259193
thorax -7.17641 0.327033 0.377662
lowerneck -13.1968 -8.63025 -12.5253
upperneck 22.5035 -10.6833 6.04821
head 10.4048 -5.3557 2.75371
rclavicle 5.59082e-016 -2.38542e-015
rhumerus -48.9867 39.517 -112.433
rradius 53.5954
rwrist 7.21632
rhand -1.54571 14.4667
rfingers 7.12502
rthumb 24.109 -14.0385
lclavicle 5.59082e-016 -2.38542e-015
lhumerus -38.1342 -21.0572 97.4033
lradius 37.9083
lwrist 3.91564
lhand -6.0598 14.6547
lfingers 7.12502
lthumb 19.7749 43.6688
rfemur -2.89911 10.8544 17.7387
rtibia 24.7689
rfoot -15.9485 -12.9018
rtoes -11.53
lfemur -1.80752 -11.0283 -17.961
ltibia 22.3548
lfoot -14.785 7.64831
ltoes -12.0682
203
root 0.450264 15.8787 0.329713 -1.00352 -0.252233 -0.77869
lowerback 11.7101 0.59442 -1.37986
upperback -0.556837 0.578877 -0.267512
thorax -7.18208 0.328647 0.393821
lowerneck -13.1722 -8.62171 -12.5476
upperneck 22.4962 -10.676 6.07602
head 10.3998 -5.35185 2.76918
rclavicle -3.64024e-015 4.37326e-015
rhumerus -49.0234 39.59 -112.479
rradius 53.6373
rwrist 7.21283
rhand -1.52506 14.484
rfingers 7.12502
rthumb 24.1289 -14.0186
lclavicle -3.64024e-015 4.37326e-015
lhumerus -38.1544 -21.0596 97.4078
lradius 37.9274
lwrist 3.90277
lhand -5.9728 14.5917
lfingers 7.12502
lthumb 19.8585 43.5971
rfemur -2.91511 10.8716 17.6817
rtibia 24.8127
rfoot -16.0443 -12.8159
rtoes -11.0096
lfemur -1.79488 -10.9949 -18.0183
ltibia 22.3479
lfoot -14.7463 7.68139
ltoes -12.0065
